# xmcd
#
# Track frame offsets: 
#        150
#        5961
#        24822
#        46624
#        61849
#        81128
#        96145
#        107677
#        122123
#        157618
#        176388
#        192786
#        214647
#        232034
#
# Disc length: 3268 seconds
#
# Revision: 0
# Processed by: cddbd v1.5.2PL0 Copyright (c) Steve Scherf et al.
# Submitted via: ExactAudioCopyFreeDBPlugin 1.0
#
DISCID=a00cc20e
DTITLE=Paul Mauriat - 金色音乐会
DYEAR=2008
DGENRE=Classical
TTITLE0=LOVE IS BLUE 爱情是忧郁的
TTITLE1=PENELOPE 爱琴海的珍珠
TTITLE2=SERENADE 小夜曲（舒伯特）
TTITLE3=MALAGUENA 马拉加舞曲
TTITLE4=IBERIA SIEMPRE IBERIA 永恒的伊比利亚
TTITLE5=MANHA DO CARNAVAL 曼哈狂欢节
TTITLE6=WESTERN FINGERS 西部弦韵
TTITLE7=REVERIE 梦幻曲（舒曼）
TTITLE8=CERISIER ROSE ET POMMIRE BLANC NE ME QUITTE PAS COMMED HABITUD
TTITLE8=E(MY WAY) 红樱桃白苹果 如果你离开 我的路
TTITLE9=RECUERDOS DE LA ALHAMBRA 问候
TTITLE10=JUST THE WAY YOU ARE 原来的你
TTITLE11=LOVE IS BLUE(EL BIMBO BOWS) 爱情是忧郁的 橄榄项链 弓弦
TTITLE12=SABRE DANCE 马刀舞
TTITLE13=BIMBO 橄榄项链
EXTD=世界三大轻音乐团之一的保罗．莫利亚乐队，以一曲《爱情是忧郁的》征服了世界，在30年里保罗．莫利亚乐团的唱片销量达3000万张，演秦
EXTD=的乐曲被录制过1000次，进行了30多次世界巡回演出，享有极高的声誉，从此成为世界明星。他的音乐清新明快，音色灿烂华美，充溢着法兰
EXTD=西民族特有的浪漫和热情。被世界各地电台、电视台广泛采用。保罗．莫利亚乐队音碟的效果极为瑰丽透明，被世界各地乐迷作为测试音响效果的最
EXTD=佳试听光碟。 \n\nLabel: 深圳激光节目出版公司\n版权提供: 深圳先科电子股份有限公司\nEAN: 9787799000
EXTD=145\nISRC: CNF270130400\nASIN: B00115D9Y2\n\n\n\n文章来源于“HTPC原动力论坛”
EXTD=http://bbs.htpc1.com/viewthread.php?tid=88411
EXTT0=
EXTT1=
EXTT2=
EXTT3=
EXTT4=
EXTT5=
EXTT6=
EXTT7=
EXTT8=
EXTT9=
EXTT10=
EXTT11=
EXTT12=
EXTT13=
PLAYORDER=
